# AST/ASF file generated using VICON BodyLanguage
# -----------------------------------------------
:version 1.10
:name VICON
:units
  mass 1.0
  length 0.45
  angle deg
:documentation
   .ast/.asf automatically generated from VICON data using
   VICON BodyBuilder and BodyLanguage model FoxedUp or BRILLIANT.MOD
:root
   order TX TY TZ RX RY RZ
   axis XYZ
   position 0 0 0  
   orientation 0 0 0 
:bonedata
  begin
     id 1 
     name lhipjoint
     direction 0.541323 -0.757556 0.364798 
     length 2.47576 
     axis 0 0 0  XYZ
  end
  begin
     id 2 
     name lfemur
     direction 0.34202 -0.939693 0  
     length 7.46493  
     axis 0 0 20  XYZ
    dof rx ry rz
    limits (-160.0 20.0)
           (-70.0 70.0)
           (-60.0 70.0)
  end
  begin
     id 3 
     name ltibia
     direction 0.34202 -0.939693 0   
     length 7.73805   
     axis 0 0 20   XYZ
    dof rx
    limits (-10.0 170.0)
  end
  begin
     id 4 
     name lfoot
     direction 0.107174 -0.294458 0.949636   
     length 2.25864   
     axis -90 7.62852e-016 20   XYZ
    dof rx rz
    limits (-45.0 90.0)
           (-70.0 20.0)
  end
  begin
     id 5 
     name ltoes
     direction 1.53606e-011 -4.21934e-011 1   
     length 1.12451   
     axis -90 7.62852e-016 20   XYZ
    dof rx
    limits (-90.0 20.0)
  end
  begin
     id 6 
     name rhipjoint
     direction -0.524745 -0.766967 0.36933   
     length 2.44538  
     axis 0 0 0  XYZ 
  end
  begin
     id 7 
     name rfemur
     direction -0.34202 -0.939693 0   
     length 7.61604   
     axis 0 0 -20   XYZ
    dof rx ry rz
    limits (-160.0 20.0)
           (-70.0 70.0)
           (-70.0 60.0)
  end
  begin
     id 8 
     name rtibia
     direction -0.34202 -0.939693 0   
     length 7.61056   
     axis 0 0 -20   XYZ
    dof rx
    limits (-10.0 170.0)
 end
 begin
     id 9 
     name rfoot
     direction -0.12616 -0.346623 0.929482   
     length 2.46372  
     axis -90 -7.62852e-016 -20   XYZ
    dof rx rz
    limits (-45.0 90.0)
           (-20.0 70.0)
  end
  begin
     id 10 
     name rtoes
     direction -1.53531e-011 -4.22004e-011 1   
     length 1.21611   
     axis -90 -7.62852e-016 -20   XYZ
    dof rx
    limits (-90.0 20.0)
  end
  begin
     id 11 
     name lowerback
     direction -0.000778023 0.997293 -0.0735223   
     length 2.06139   
     axis 0 0 0   XYZ
    dof rx ry rz
    limits (-20.0 45.0)
           (-30.0 30.0)
           (-30.0 30.0)
  end
  begin
     id 12 
     name upperback
     direction 0.0222598 0.999722 -0.0078355   
     length 2.06383   
     axis 0 0 0   XYZ
    dof rx ry rz
    limits (-20.0 45.0)
           (-30.0 30.0)
           (-30.0 30.0)
  end
  begin
     id 13 
     name thorax
     direction 0.0219654 0.999405 0.0265994   
     length 2.07163   
     axis 0 0 0   XYZ
    dof rx ry rz
    limits (-20.0 45.0)
           (-30.0 30.0)
           (-30.0 30.0)
  end
  begin
     id 14 
     name lowerneck
     direction 0.0213282 0.988147 0.15202   
     length 1.75969   
     axis 0 0 0   XYZ
    dof rx ry rz
    limits (-20.0 45.0)
           (-30.0 30.0)
           (-30.0 30.0)
  end
  begin
     id 15 
     name upperneck
     direction -0.0546456 0.982624 -0.177379   
     length 1.79244   
     axis 0 0 0   XYZ
    dof rx ry rz
    limits (-20.0 45.0)
           (-30.0 30.0)
           (-30.0 30.0)
  end
  begin
     id 16
     name head
     direction -0.0199987 0.996855 -0.076686  
     length 1.80555  
     axis 0 0 0   XYZ
    dof rx ry rz
    limits (-20.0 45.0)
           (-30.0 30.0)
           (-30.0 30.0)
  end
  begin
     id 17 
     name lclavicle
     direction 0.929565 0.363219 -0.063096  
     length 3.55722  
     axis 0 0 0   XYZ
    dof ry rz
    limits (-20.0 10.0)
           (0.0 20.0)
  end
  begin
     id 18 
     name lhumerus
     direction 1 -4.48993e-011 -2.36203e-027   
     length 4.92785   
     axis 180 -30 -90   XYZ
    dof rx ry rz
    limits (-60.0 90.0)
           (-90.0 90.0)
           (-90.0 90.0)
  end
  begin
     id 19
     name lradius
     direction 1 -4.48947e-011 2.02997e-027   
     length 3.44052   
     axis 180 -30 -90   XYZ
    dof rx
    limits (-10.0 170.0)
  end
  begin
     id 20
     name lwrist
     direction 1 -4.48962e-011 1.45991e-027   
     length 1.72026   
     axis 1.49639e-024 90 90   XYZ
    dof ry
    limits (-180.0 0.0)
 end
  begin
     id 21 
     name lhand
     direction 1 -4.48984e-011 2.91906e-027   
     length 0.654326   
     axis -1.863e-015 90 90   XYZ
    dof rx rz
    limits (-90.0 90.0)
           (-45.0 45.0)
  end
  begin
     id 22 
     name lfingers
     direction 1 -4.48961e-011 5.83968e-027   
     length 0.527534   
     axis -3.72598e-015 90 90   XYZ
    dof rx
    limits (0.0 90.0)
  end
  begin
     id 23
     name lthumb
     direction 0.707107 -6.34963e-011 0.707107   
     length 0.757437   
     axis -90 45 -6.68868e-015   XYZ
    dof rx rz
    limits (-45.0 45.0)
           (-45.0 45.0)
  end
  begin
     id 24 
     name rclavicle
     direction -0.902944 0.422599 -0.0781198   
     length 3.54432  
     axis 0 0 0   XYZ 
    dof ry rz
    limits (-10.0 20.0)
           (-20.0 0.0)
  end
  begin
     id 25 
     name rhumerus
     direction -1 -4.48953e-011 -4.75835e-028  
     length 5.09181   
     axis 180 30 90   XYZ
    dof rx ry rz
    limits (-90.0 60.0)
           (-90.0 90.0)
           (-90.0 90.0)
  end
  begin
     id 26 
     name rradius
     direction -1 -4.48986e-011 -3.25889e-027   
     length 3.49865   
     axis 180 30 90   XYZ
    dof rx
    limits (-10.0 170.0)
  end
  begin
     id 27 
     name rwrist
     direction -1 -4.48963e-011 1.45989e-027   
     length 1.74933   
     axis 1.49639e-024 -90 -90   XYZ
    dof ry
    limits (-180.0 0.0)
  end
  begin
     id 28
     name rhand
     direction -1 -4.49003e-011 2.91844e-027   
     length 0.66641   
     axis -1.863e-015 -90 -90   XYZ
    dof rx rz
    limits (-90.0 90.0)
           (-45.0 45.0)
  end
  begin
     id 29
     name rfingers
     direction -1 -4.48973e-011 5.83886e-027   
     length 0.537277   
     axis -3.72598e-015 -90 -90   XYZ
    dof rx
    limits (0.0 90.0)
  end
  begin
     id 30
     name rthumb
     direction -0.707107 -6.34976e-011 0.707107   
     length 0.771425   
     axis -90 -45 6.68868e-015   XYZ
    dof rx rz
    limits (-45.0 45.0)
           (-45.0 45.0)
  end
:hierarchy
  begin
    root lhipjoint rhipjoint lowerback
    lhipjoint lfemur
    lfemur ltibia
    ltibia lfoot
    lfoot ltoes
    rhipjoint rfemur
    rfemur rtibia
    rtibia rfoot
    rfoot rtoes
    lowerback upperback
    upperback thorax
    thorax lowerneck lclavicle rclavicle
    lowerneck upperneck
    upperneck head
    lclavicle lhumerus
    lhumerus lradius
    lradius lwrist
    lwrist lhand lthumb
    lhand lfingers
    rclavicle rhumerus
    rhumerus rradius
    rradius rwrist
    rwrist rhand rthumb
    rhand rfingers
  end

#!OML:ASF H:\LiuWeirdWalks\Patient Classification 1\Patient 1\Session 1\male.ASF
:FULLY-SPECIFIED
:DEGREES
79
root -0.354331 17.7089 -28.7049 5.21777 3.69754 1.27897
lowerback 1.50497 -1.45866 -3.0847
upperback -2.57344 -1.96588 2.74515
thorax -3.29896 -0.864259 4.65576
lowerneck -21.6333 1.8854 7.15823
upperneck 25.0204 2.48908 -7.97276
head 12.0119 0.750479 -3.81022
rclavicle -1.45237e-014 -7.15625e-015
rhumerus -34.1471 -9.76573 -77.1258
rradius 23.5432
rwrist -2.25198
rhand -15.6753 -2.17916
rfingers 7.12502
rthumb 10.5134 -31.8962
lclavicle -1.45237e-014 -7.15625e-015
lhumerus -36.5211 4.4541 85.0397
lradius 27.6536
lwrist 8.41718
lhand -11.5769 0.229736
lfingers 7.12502
lthumb 14.4647 29.7056
rfemur -13.4445 -1.37906 20.0003
rtibia 36.0282
rfoot -25.4945 -21.4412
rtoes -4.12753
lfemur -10.4742 -2.00616 -19.2645
ltibia 28.7809
lfoot -16.1507 17.788
ltoes -5.94424
80
root -0.36933 17.7031 -28.6759 5.26433 3.61087 1.23813
lowerback 1.47519 -1.59751 -3.14346
upperback -2.58962 -2.14828 2.9088
thorax -3.27259 -0.952273 4.86601
lowerneck -21.4988 2.11688 7.11671
upperneck 24.9477 2.88971 -8.13846
head 11.9976 0.906187 -3.7974
rclavicle 8.53532e-015 9.54166e-015
rhumerus -34.1171 -9.11037 -77.2167
rradius 23.5171
rwrist -2.36246
rhand -15.6703 -2.22312
rfingers 7.12502
rthumb 10.5182 -31.94
lclavicle 8.53532e-015 9.54166e-015
lhumerus -36.7093 5.1259 84.9581
lradius 27.6515
lwrist 8.28439
lhand -11.6306 0.244815
lfingers 7.12502
lthumb 14.4129 29.7244
rfemur -13.3758 -1.32078 20.1047
rtibia 36.012
rfoot -25.7998 -21.3937
rtoes -4.21854
lfemur -10.4605 -1.95294 -19.1686
ltibia 28.8849
lfoot -16.267 17.8538
ltoes -6.0034
81
root -0.384458 17.6971 -28.6458 5.31241 3.513 1.19528
lowerback 1.43877 -1.64503 -3.15806
upperback -2.59116 -2.20951 2.98375
thorax -3.2439 -0.982306 4.95348
lowerneck -21.4534 2.2477 7.10827
upperneck 24.94 3.10088 -8.19925
head 12.007 0.992776 -3.78393
rclavicle 1.73067e-014 8.74653e-015
rhumerus -34.153 -8.8005 -77.2817
rradius 23.5026
rwrist -2.41775
rhand -15.6666 -2.2473
rfingers 7.12502
rthumb 10.5217 -31.964
lclavicle 1.73067e-014 8.74653e-015
lhumerus -36.8198 5.453 84.8936
lradius 27.6417
lwrist 8.20632
lhand -11.6935 0.270053
lfingers 7.12502
lthumb 14.3524 29.7539
rfemur -13.3043 -1.25818 20.2105
rtibia 35.9946
rfoot -26.0983 -21.3363
rtoes -4.32869
lfemur -10.4479 -1.87581 -19.0708
ltibia 28.9973
lfoot -16.3854 17.9096
ltoes -6.07361
82
root -0.399265 17.6909 -28.6143 5.36263 3.4129 1.18656
lowerback 1.40331 -1.70204 -3.19917
upperback -2.60032 -2.28441 3.05474
thorax -3.2212 -1.0183 5.05253
lowerneck -21.3984 2.40037 7.117
upperneck 24.9282 3.34355 -8.27971
head 12.0169 1.09278 -3.77552
rclavicle 3.4191e-014 -1.43125e-014
rhumerus -34.2007 -8.45296 -77.3454
rradius 23.484
rwrist -2.45481
rhand -15.6705 -2.26856
rfingers 7.12502
rthumb 10.518 -31.9854
lclavicle 3.4191e-014 -1.43125e-014
lhumerus -36.9518 5.80707 84.8248
lradius 27.6526
lwrist 8.19206
lhand -11.6972 0.3095
lfingers 7.12502
lthumb 14.3487 29.7936
rfemur -13.2266 -1.21935 20.2725
rtibia 35.9792
rfoot -26.3949 -21.2434
rtoes -4.45046
lfemur -10.4348 -1.78114 -19.0137
ltibia 29.1207
lfoot -16.5076 17.9542
ltoes -6.17358
83
root -0.414601 17.6842 -28.581 5.41089 3.30918 1.19206
lowerback 1.35777 -1.63645 -3.2152
upperback -2.59001 -2.1976 3.00756
thorax -3.19548 -0.975918 5.00732
lowerneck -21.3723 2.34637 7.07448
upperneck 24.9268 3.24983 -8.16872
head 11.999 1.0617 -3.74076
rclavicle 2.03754e-014 -2.14687e-014
rhumerus -34.3439 -8.57231 -77.3681
rradius 23.487
rwrist -2.42712
rhand -15.6739 -2.28119
rfingers 7.12502
rthumb 10.5147 -31.9982
lclavicle 2.03754e-014 -2.14687e-014
lhumerus -36.9796 5.70352 84.7878
lradius 27.6526
lwrist 8.24821
lhand -11.659 0.373597
lfingers 7.12502
lthumb 14.3856 29.8551
rfemur -13.1389 -1.16954 20.3201
rtibia 35.9649
rfoot -26.688 -21.1479
rtoes -4.61443
lfemur -10.4216 -1.66512 -18.9699
ltibia 29.2663
lfoot -16.6411 17.9817
ltoes -6.29382
84
root -0.430601 17.6771 -28.5473 5.45772 3.20281 1.18963
lowerback 1.32357 -1.75656 -3.29657
upperback -2.57985 -2.35644 3.14848
thorax -3.13987 -1.05335 5.20458
lowerneck -21.3284 2.65752 7.18377
upperneck 24.8317 3.73335 -8.4341
head 12.0084 1.25513 -3.77814
rclavicle 1.22377e-014 4.77083e-015
rhumerus -34.2978 -7.9536 -77.4478
rradius 23.4541
rwrist -2.47982
rhand -15.6573 -2.29659
rfingers 7.12502
rthumb 10.5307 -32.0128
lclavicle 1.22377e-014 4.77083e-015
lhumerus -37.1316 6.34322 84.7066
lradius 27.6961
lwrist 8.20462
lhand -11.6132 0.364438
lfingers 7.12502
lthumb 14.4297 29.8428
rfemur -13.049 -1.09992 20.3801
rtibia 35.9506
rfoot -26.9587 -21.057
rtoes -4.82208
lfemur -10.4259 -1.53695 -18.9138
ltibia 29.4504
lfoot -16.7825 17.9991
ltoes -6.44592
85
root -0.447827 17.6693 -28.5132 5.50418 3.10966 1.16884
lowerback 1.3034 -1.72774 -3.31511
upperback -2.55676 -2.31813 3.15059
thorax -3.10813 -1.03499 5.21467
lowerneck -21.3388 2.69692 7.20891
upperneck 24.7904 3.78005 -8.44189
head 11.9997 1.27734 -3.77635
rclavicle -1.28962e-014 7.95139e-015
rhumerus -34.3724 -7.94114 -77.4737
rradius 23.4383
rwrist -2.44452
rhand -15.632 -2.31508
rfingers 7.12502
rthumb 10.5551 -32.03
lclavicle -1.28962e-014 7.95139e-015
lhumerus -37.1775 6.40432 84.661
lradius 27.7161
lwrist 8.19118
lhand -11.5892 0.29185
lfingers 7.12502
lthumb 14.4528 29.7686
rfemur -12.9536 -1.00998 20.47
rtibia 35.9303
rfoot -27.2137 -20.9814
rtoes -5.07328
lfemur -10.4658 -1.39777 -18.8285
ltibia 29.6981
lfoot -16.9367 17.9987
ltoes -6.63794
86
root -0.466022 17.6609 -28.4797 5.55247 3.04002 1.11894
lowerback 1.32726 -1.81857 -3.34769
upperback -2.55054 -2.43806 3.27332
thorax -3.0954 -1.09327 5.36635
lowerneck -21.3464 2.94597 7.30328
upperneck 24.7157 4.16284 -8.65783
head 12.018 1.42977 -3.8094
rclavicle -2.96935e-014 7.95139e-016
rhumerus -34.3438 -7.47818 -77.5345
rradius 23.3925
rwrist -2.47757
rhand -15.5989 -2.34701
rfingers 7.12502
rthumb 10.5871 -32.0603
lclavicle -2.96935e-014 7.95139e-016
lhumerus -37.3311 6.91018 84.5838
lradius 27.7701
lwrist 8.09919
lhand -11.6036 0.172033
lfingers 7.12502
lthumb 14.439 29.6497
rfemur -12.8582 -0.913245 20.6008
rtibia 35.9019
rfoot -27.4729 -20.9122
rtoes -5.31306
lfemur -10.5631 -1.23892 -18.7018
ltibia 30.0308
lfoot -17.0858 17.9767
ltoes -6.89977
87
root -0.484831 17.6517 -28.4472 5.60356 2.98944 1.02302
lowerback 1.38072 -1.77515 -3.28265
upperback -2.53313 -2.37909 3.27559
thorax -3.11669 -1.06505 5.33165
lowerneck -21.3954 2.94773 7.31515
upperneck 24.658 4.14704 -8.63386
head 12.0033 1.42607 -3.80309
rclavicle -1.5704e-014 2.38542e-015
rhumerus -34.413 -7.55398 -77.5571
rradius 23.3595
rwrist -2.43972
rhand -15.5802 -2.36257
rfingers 7.12502
rthumb 10.6051 -32.075
lclavicle -1.5704e-014 2.38542e-015
lhumerus -37.3602 6.88473 84.5392
lradius 27.7984
lwrist 8.06593
lhand -11.6208 0.102572
lfingers 7.12502
lthumb 14.4224 29.5815
rfemur -12.7652 -0.821639 20.7881
rtibia 35.8628
rfoot -27.7217 -20.8527
rtoes -5.55685
lfemur -10.7318 -1.04681 -18.5172
ltibia 30.4665
lfoot -17.2356 17.9286
ltoes -7.19968
88
root -0.503611 17.6416 -28.4155 5.65008 2.97451 0.903326
lowerback 1.46388 -1.60066 -3.13474
upperback -2.54317 -2.14591 3.14459
thorax -3.21039 -0.950863 5.10617
lowerneck -21.354 2.63314 7.14591
upperneck 24.6355 3.65442 -8.28671
head 11.9256 1.23507 -3.72171
rclavicle 2.2413e-014 -1.82882e-014
rhumerus -34.6805 -8.16518 -77.5293
rradius 23.3525
rwrist -2.33718
rhand -15.5776 -2.3671
rfingers 7.12502
rthumb 10.6077 -32.0794
lclavicle 2.2413e-014 -1.82882e-014
lhumerus -37.3555 6.29109 84.5207
lradius 27.8163
lwrist 8.13082
lhand -11.6358 0.105793
lfingers 7.12502
lthumb 14.4079 29.5857
rfemur -12.6617 -0.762538 21.0033
rtibia 35.8141
rfoot -27.9804 -20.7914
rtoes -5.74404
lfemur -10.9688 -0.835509 -18.3012
ltibia 31.0152
lfoot -17.3791 17.8582
ltoes -7.5571
89
root -0.521961 17.6305 -28.3844 5.69104 2.98011 0.752084
lowerback 1.57036 -1.51476 -2.969
upperback -2.54592 -2.02853 3.10361
thorax -3.29283 -0.894652 4.96894
lowerneck -21.337 2.48247 7.02992
upperneck 24.6052 3.42367 -8.09937
head 11.8819 1.14514 -3.66705
rclavicle -1.73937e-016 7.95139e-015
rhumerus -34.8426 -8.4339 -77.5316
rradius 23.3257
rwrist -2.2931
rhand -15.5751 -2.37838
rfingers 7.12502
rthumb 10.6101 -32.0905
lclavicle -1.73937e-016 7.95139e-015
lhumerus -37.383 6.02147 84.4879
lradius 27.8518
lwrist 8.14657
lhand -11.679 0.104448
lfingers 7.12502
lthumb 14.3663 29.5873
rfemur -12.5486 -0.729753 21.2508
rtibia 35.7544
rfoot -28.2212 -20.7408
rtoes -5.91517
lfemur -11.2753 -0.606935 -18.0505
ltibia 31.6863
lfoot -17.5263 17.7772
ltoes -7.92567
